<svg xmlns="http://www.w3.org/2000/svg" viewBox="0 0 128 128"><path d="M42 38.7c0-1.4 1.1-2.5 2.5-2.5H82c1.4 0 2.5 1.1 2.5 2.5s-1.1 2.5-2.5 2.5H44.5c-1.4 0-2.5-1.1-2.5-2.5zm2.5 23.4H82c1.4 0 2.5-1.1 2.5-2.5s-1.1-2.5-2.5-2.5H44.5c-1.4 0-2.5 1.1-2.5 2.5s1.1 2.5 2.5 2.5zm16.1 14.7H44.5c-1.4 0-2.5 1.1-2.5 2.5s1.1 2.5 2.5 2.5h16.2c1.4 0 2.5-1.1 2.5-2.5s-1.2-2.5-2.6-2.5zm53.1 15.5v1.4c0 .7-.3 1.3-.8 1.8l-27 26.4c-.5.5-1.1.7-1.7.7H20.7c-3.6 0-6.6-2.9-6.6-6.6V12.1c0-3.6 2.9-6.6 6.6-6.6h86.4c3.6 0 6.6 2.9 6.6 6.6v78.8c.1.2.1.4.1.7s0 .4-.1.7zm-93 25.2h60c-.2-.3-.2-.7-.2-1.1V95.8c0-3.7 3-6.7 6.7-6.7h21.6v-77c0-.9-.7-1.6-1.6-1.6H20.7c-.9 0-1.6.7-1.6 1.6V116c.1.8.8 1.5 1.6 1.5zm86.5-23.4h-20c-.9 0-1.7.8-1.7 1.7v19.5l21.7-21.2z"/></svg>