<svg xmlns="http://www.w3.org/2000/svg" viewBox="0 0 128 128"><path d="M85.5 8.5c-2.2-1.2-4.9-1-6.9.4L41.1 34.3c-.3.2-.6.3-1 .3H15.4c-3.7 0-6.7 3-6.7 6.7V87c0 3.7 3 6.7 6.7 6.7h26.3c.4 0 .7.1 1 .3l35.9 25c1.2.8 2.5 1.2 3.9 1.2 1.1 0 2.1-.3 3.1-.8 2.2-1.2 3.6-3.5 3.6-6v-99c-.1-2.5-1.5-4.8-3.7-5.9zm-1.4 105.1c0 1-.7 1.4-.9 1.5-.3.1-1 .4-1.8-.1L45.5 90c-1.1-.8-2.5-1.2-3.9-1.2H15.4c-1 0-1.7-.8-1.7-1.7V41.4c0-1 .8-1.7 1.7-1.7h24.8c1.4 0 2.7-.4 3.8-1.2L81.4 13c.8-.5 1.5-.2 1.8-.1.3.1.9.6.9 1.5v99.2zM106.4 96c-.5.6-1.2.9-1.9.9-.6 0-1.1-.2-1.6-.6-1.1-.9-1.2-2.5-.3-3.5 26.1-31.8 1.3-55.1.2-56.1-1-.9-1.1-2.5-.2-3.5.9-1 2.5-1.1 3.5-.2.3.3 7.5 6.9 11.2 18.1 6.1 18.6-2.6 34.7-10.9 44.9z"/></svg>