<svg xmlns="http://www.w3.org/2000/svg" viewBox="0 0 128 128"><path d="M109.2 19.2H95.4v-7.7c0-1.4-1.1-2.5-2.5-2.5s-2.5 1.1-2.5 2.5v7.7H38.5v-7.7c0-1.4-1.1-2.5-2.5-2.5s-2.5 1.1-2.5 2.5v7.7H18.8c-8.4 0-15.2 6.8-15.2 15.2v69.2c0 8.4 6.8 15.2 15.2 15.2h90.3c8.4 0 15.2-6.8 15.2-15.2V34.5c.1-8.4-6.7-15.3-15.1-15.3zm-90.4 5h14.7V30c0 1.4 1.1 2.5 2.5 2.5s2.5-1.1 2.5-2.5v-5.8h51.9V30c0 1.4 1.1 2.5 2.5 2.5s2.5-1.1 2.5-2.5v-5.8h13.7c5.6 0 10.2 4.6 10.2 10.2v11.8H8.6V34.5c0-5.7 4.6-10.3 10.2-10.3zm90.4 89.7H18.8c-5.6 0-10.2-4.6-10.2-10.2V51.3h110.8v52.4c0 5.6-4.6 10.2-10.2 10.2z"/></svg>