<svg id="Layer_1" xmlns="http://www.w3.org/2000/svg" viewBox="0 0 128 128"><style>.st0{fill:#252122}</style><path class="st0" d="M53.8 102C34.6 101.7 14 97.7 14 91.6c0-15.7 18.8-28.5 42-28.5 5.8 0 11.4.8 16.6 2.3 1.3.4 2.7-.4 3.1-1.7.4-1.3-.4-2.7-1.7-3.1-3.1-.9-6.4-1.6-9.7-2C75.1 55 83 44.7 83 32.6 83 17.5 70.6 5.1 55.5 5.1S28 17.5 28 32.6c0 12.2 8 22.5 18.9 26.1C25.3 61.8 9 75.4 9 91.6c0 14 37.3 15.2 44.8 15.3 1.4 0 2.5-1.1 2.5-2.5 0-1.3-1.1-2.4-2.5-2.4zM33 32.6c0-12.4 10.1-22.5 22.5-22.5S78 20.2 78 32.6 67.9 55.1 55.5 55.1 33 45 33 32.6zm85.9 56.9c-.4-1.3-1.5-2.3-2.9-2.5l-15-2.2-6.7-13.7c-.6-1.2-1.8-2-3.2-2-1.4 0-2.6.8-3.2 2L81 84.8l-15 2.1c-1.3.2-2.4 1.2-2.9 2.5-.4 1.3-.1 2.7.9 3.6l10.9 10.6-2.6 14.9c-.3 1.4.3 2.7 1.4 3.5 1.1.8 2.6.9 3.8.3l13.5-7.1 13.4 7.1c.5.3 1.1.4 1.6.4.7 0 1.5-.2 2.1-.7 1.1-.8 1.6-2.1 1.4-3.5l-2.5-15 11-10.4c.9-.9 1.3-2.3.9-3.6zm-15.8 11.1c-.9.8-1.3 2.1-1.1 3.2l2.2 12.9-11.5-6.1c-.5-.3-1.1-.4-1.7-.4-.6 0-1.1.1-1.6.4l-11.6 6.1 2.2-12.8c.2-1.2-.2-2.5-1-3.2l-9.3-9.1 12.9-1.8c1.2-.2 2.2-.9 2.7-2L91 75.9l5.8 11.8c.6 1 1.5 1.7 2.6 1.9l12.9 1.9-9.2 9.1z"/></svg>