<svg width="32" height="32" viewBox="0 0 32 32" fill="none" xmlns="http://www.w3.org/2000/svg"><path d="M8.686 21.55c4.787 5.206 12.866 5.525 18.044.712C6.944 20.704 9.394 3.41 9.394 3.41 4.216 8.223 3.9 16.344 8.686 21.55z" fill="#83CBFF"/><path fill-rule="evenodd" clip-rule="evenodd" d="M27.411 22.025a.727.727 0 0 1-.192.769c-5.47 5.084-14.005 4.747-19.062-.752-5.057-5.5-4.722-14.08.748-19.164a.718.718 0 0 1 .824-.11c.27.142.422.44.379.743l-.001.007-.004.03a12.146 12.146 0 0 0-.056.65 17.828 17.828 0 0 0-.007 1.903c.077 1.59.379 3.713 1.268 5.873.888 2.155 2.36 4.347 4.786 6.096 2.428 1.75 5.853 3.089 10.693 3.47.285.022.53.213.624.485zm-.681.237a32.642 32.642 0 0 1-.988-.093C9.946 20.441 9.17 8.266 9.311 4.51c.026-.694.083-1.1.083-1.1-.278.258-.541.526-.791.802-4.406 4.873-4.447 12.412.083 17.338a12.722 12.722 0 0 0 18.044.712z" fill="#000"/><path d="M18.126 2.042c.032 3.573 2.021 5.378 5.954 5.4-4.077.17-6.244 1.766-5.979 5.18-.35-3.208-2.324-4.94-5.929-5.18 3.98.029 5.97-1.769 5.954-5.4zM26.195 11.417c.015 1.543.952 2.322 2.805 2.332-1.92.073-2.942.762-2.816 2.237-.165-1.386-1.095-2.133-2.793-2.237 1.875.012 2.812-.764 2.804-2.332z" fill="#FB0"/></svg>