<svg width="32" height="32" viewBox="0 0 32 32" fill="none" xmlns="http://www.w3.org/2000/svg"><path d="M16.432 7.348a8.198 8.198 0 0 0-8.199 8.198H24.63a8.198 8.198 0 0 0-8.198-8.198z" fill="#FFA370"/><path fill-rule="evenodd" clip-rule="evenodd" d="M16.375 7.696a7.897 7.897 0 0 0-7.897 7.897.348.348 0 0 1-.695 0 8.593 8.593 0 1 1 17.185 0 .348.348 0 1 1-.696 0 7.897 7.897 0 0 0-7.897-7.897zM5 18.066c0-.192.156-.348.348-.348h22.26a.348.348 0 1 1 0 .696H5.349A.348.348 0 0 1 5 18.066zM8.298 21.364c0-.192.156-.348.348-.348H24.31a.348.348 0 1 1 0 .696H8.646a.348.348 0 0 1-.348-.348zM11.596 24.662c0-.192.155-.348.348-.348h8.244a.348.348 0 1 1 0 .696h-8.244a.348.348 0 0 1-.348-.348z" fill="#000"/></svg>