<svg width="32" height="32" viewBox="0 0 32 32" fill="none" xmlns="http://www.w3.org/2000/svg"><g clip-path="url(#a)"><path d="M24.032 15.6a8.03 8.03 0 1 1-16.062 0 8.03 8.03 0 0 1 16.062 0z" fill="#FFC14B"/><path fill-rule="evenodd" clip-rule="evenodd" d="M16.001 7.91a7.69 7.69 0 1 0 0 15.38 7.69 7.69 0 0 0 0-15.38zM7.63 15.6a8.371 8.371 0 1 1 16.743 0 8.371 8.371 0 0 1-16.743 0zM15.998 0a.34.34 0 0 1 .34.34v3.213a.34.34 0 1 1-.68 0V.34a.34.34 0 0 1 .34-.34zM15.998 28.107a.34.34 0 0 1 .34.34v3.213a.34.34 0 1 1-.68 0v-3.213a.34.34 0 0 1 .34-.34zM32 16a.34.34 0 0 1-.34.34h-3.213a.34.34 0 1 1 0-.68h3.213A.34.34 0 0 1 32 16zM3.893 16a.34.34 0 0 1-.34.34H.34a.34.34 0 1 1 0-.68h3.213a.34.34 0 0 1 .34.34zM27.313 4.688a.34.34 0 0 1 0 .48L25.04 7.44a.34.34 0 0 1-.481-.481l2.271-2.271a.34.34 0 0 1 .482 0zM7.44 24.563a.34.34 0 0 1 0 .48l-2.272 2.272a.34.34 0 0 1-.481-.481l2.271-2.271a.34.34 0 0 1 .482 0zM27.313 27.316a.34.34 0 0 1-.481 0l-2.272-2.271a.34.34 0 0 1 .482-.482l2.271 2.272a.34.34 0 0 1 0 .481zM7.44 7.438a.34.34 0 0 1-.482 0L4.687 5.167a.34.34 0 1 1 .481-.481L7.44 6.957a.34.34 0 0 1 0 .481z" fill="#000"/></g><defs><clipPath id="a"><path fill="#fff" d="M0 0h32v32H0z"/></clipPath></defs></svg>