<svg width="212" height="115" viewBox="0 0 212 115" fill="none" xmlns="http://www.w3.org/2000/svg"><path d="M105.618 114.537c58.331 0 105.618-6.164 105.618-13.768 0-7.605-47.287-13.769-105.618-13.769C47.287 87 0 93.164 0 100.769c0 7.604 47.287 13.768 105.618 13.768z" fill="#EDF1F4"/><path d="M155.291 13.732v79.022c0 2.618-1.471 4.751-3.354 4.751H59.264c-1.853 0-3.354-2.133-3.354-4.751V11.43" fill="#fff"/><path d="M151.937 97.961H59.264c-2.103 0-3.817-2.339-3.817-5.207V11.43h.92v81.324c0 2.36 1.302 4.288 2.898 4.288h92.672c1.597 0 2.898-1.927 2.898-4.288V13.732h.92v79.022c0 2.868-1.714 5.207-3.818 5.207z" fill="#75848E"/><path d="M61.442 6.002h88.201a5.658 5.658 0 0 1 5.656 5.656v10.856H55.786V11.665a5.656 5.656 0 0 1 5.656-5.656v-.007z" fill="#ECF0F2"/><path d="M155.756 22.94H55.323V11.665a6.127 6.127 0 0 1 6.12-6.12h88.193a6.126 6.126 0 0 1 6.12 6.12V22.94zm-99.513-.92h98.593V11.666a5.206 5.206 0 0 0-5.2-5.2H61.443a5.207 5.207 0 0 0-5.2 5.2v10.356z" fill="#75848E"/><path d="M82.353.47h-1.618c-.898 0-1.626.728-1.626 1.626v8.812c0 .897.728 1.625 1.626 1.625h1.618c.898 0 1.625-.728 1.625-1.625V2.096c0-.898-.727-1.625-1.625-1.625z" fill="#fff"/><path d="M82.352 12.989h-1.618a2.089 2.089 0 0 1-2.088-2.082V2.082A2.09 2.09 0 0 1 80.733 0h1.618a2.081 2.081 0 0 1 2.082 2.081v8.827a2.081 2.081 0 0 1-2.082 2.08zM80.734.934a1.17 1.17 0 0 0-1.17 1.162v8.826a1.169 1.169 0 0 0 1.17 1.162h1.618a1.162 1.162 0 0 0 1.162-1.162V2.096A1.162 1.162 0 0 0 82.352.934h-1.618z" fill="#75848E"/><path d="M127.646.47h-1.618c-.898 0-1.626.728-1.626 1.626v8.812c0 .897.728 1.625 1.626 1.625h1.618c.898 0 1.625-.728 1.625-1.625V2.096c0-.898-.727-1.625-1.625-1.625z" fill="#fff"/><path d="M127.646 12.989h-1.618a2.083 2.083 0 0 1-2.082-2.082V2.082a2.075 2.075 0 0 1 .61-1.471 2.083 2.083 0 0 1 1.472-.61h1.618a2.086 2.086 0 0 1 2.089 2.081v8.827a2.087 2.087 0 0 1-2.089 2.08zM126.028.934a1.163 1.163 0 0 0-1.162 1.162v8.826a1.161 1.161 0 0 0 1.162 1.162h1.618a1.168 1.168 0 0 0 1.169-1.162V2.096a1.17 1.17 0 0 0-1.169-1.162h-1.618z" fill="#75848E"/><path d="M88.391 22.668h-.92v74.837h.92V22.668zM122.813 22.668h-.919v74.837h.919V22.668z" fill="#75848E" opacity=".4"/><path d="M155.292 46.454H55.874v.92h99.418v-.92zM155.292 71.461H55.874v.92h99.418v-.92z" fill="#75848E" opacity=".4"/><path d="M62.544 33.522l4.067 6.053L81.093 28.46" fill="#fff"/><path d="M66.5 40.237l-4.339-6.458a.462.462 0 0 1 .23-.81.462.462 0 0 1 .506.295l3.795 5.649 14.092-10.82a.463.463 0 0 1 .56.736L66.5 40.237z" fill="#75848E"/><path d="M94.544 58.522l4.067 6.053 14.482-11.114" fill="#fff"/><path d="M98.5 65.237l-4.338-6.458a.462.462 0 0 1 .23-.81.462.462 0 0 1 .505.295l3.795 5.649 14.092-10.82a.464.464 0 0 1 .648.089.463.463 0 0 1-.089.647L98.501 65.237z" fill="#75848E"/><mask id="a" maskUnits="userSpaceOnUse" x="143" y="69" width="23" height="30" fill="#000"><path fill="#fff" d="M143 69h23v30h-23z"/><path d="M163.657 70l.269.097c.71.25 1.138.956 1.014 1.674-.122.706-.743 1.231-1.487 1.255-.15.005-.301 0-.505 0v.342c-.018 1.143.04 2.291-.065 3.428-.306 3.308-2.718 6.108-5.991 7.054-.109.03-.215.066-.388.12.405.139.749.242 1.083.372 3.214 1.233 5.329 4.227 5.361 7.591.008.985 0 1.968 0 2.994.171 0 .318-.002.465 0 .86.017 1.527.652 1.543 1.466.016.836-.628 1.506-1.491 1.554-.065.003-.129.001-.194.001h-17.579c-.977 0-1.676-.622-1.685-1.493-.007-.839.65-1.504 1.512-1.528.15-.003.299 0 .496 0v-.35c.019-1.164-.031-2.334.07-3.49.281-3.22 2.79-6.104 5.991-6.985l.388-.114c-.145-.058-.221-.094-.302-.118-3.723-1.076-6.142-4.23-6.147-8.017v-2.487-.34c-.168 0-.304.002-.442 0-.806-.013-1.452-.55-1.557-1.287-.109-.768.353-1.448 1.139-1.68.051-.013.098-.039.147-.059h18.355zm-1.16 24.914c0-1.077.017-2.125-.007-3.171a7.428 7.428 0 0 0-.168-1.37c-.806-3.74-4.3-6.234-7.935-6.173-3.665.062-6.932 2.564-7.725 6.044-.348 1.524-.161 3.07-.191 4.608 0 .017.021.034.041.063h15.985v-.001zm-16.04-21.874c0 .59-.01 1.146.002 1.7.019.807-.031 1.627.101 2.416.742 4.45 4.983 7.298 9.531 6.444 3.314-.623 6.004-3.414 6.327-6.677.124-1.258.056-2.534.074-3.802 0-.027-.027-.052-.041-.081h-15.994zm8.026-.444h7.783c.409 0 .818.01 1.227-.01a1.057 1.057 0 0 0 1.021-1.057c.005-.653-.481-1.09-1.222-1.09H145.66c-.064 0-.129 0-.194.003-.527.04-.957.44-1.012.94-.057.542.247 1.02.769 1.163.182.05.383.05.575.05 2.897.004 5.791.002 8.687.002l-.002-.001zm-.01 24.917h3.294c1.862 0 3.725.003 5.586-.002.673 0 1.148-.446 1.159-1.058.01-.631-.458-1.082-1.148-1.097-.355-.007-.71-.002-1.065-.002h-15.628c-.409 0-.818-.012-1.226.012-.554.03-.975.475-.996 1.012-.026.67.462 1.133 1.21 1.133 2.938.002 5.877 0 8.815 0l-.001.002z"/></mask><path d="M163.657 70l.269.097c.71.25 1.138.956 1.014 1.674-.122.706-.743 1.231-1.487 1.255-.15.005-.301 0-.505 0v.342c-.018 1.143.04 2.291-.065 3.428-.306 3.308-2.718 6.108-5.991 7.054-.109.03-.215.066-.388.12.405.139.749.242 1.083.372 3.214 1.233 5.329 4.227 5.361 7.591.008.985 0 1.968 0 2.994.171 0 .318-.002.465 0 .86.017 1.527.652 1.543 1.466.016.836-.628 1.506-1.491 1.554-.065.003-.129.001-.194.001h-17.579c-.977 0-1.676-.622-1.685-1.493-.007-.839.65-1.504 1.512-1.528.15-.003.299 0 .496 0v-.35c.019-1.164-.031-2.334.07-3.49.281-3.22 2.79-6.104 5.991-6.985l.388-.114c-.145-.058-.221-.094-.302-.118-3.723-1.076-6.142-4.23-6.147-8.017v-2.487-.34c-.168 0-.304.002-.442 0-.806-.013-1.452-.55-1.557-1.287-.109-.768.353-1.448 1.139-1.68.051-.013.098-.039.147-.059h18.355zm-1.16 24.914c0-1.077.017-2.125-.007-3.171a7.428 7.428 0 0 0-.168-1.37c-.806-3.74-4.3-6.234-7.935-6.173-3.665.062-6.932 2.564-7.725 6.044-.348 1.524-.161 3.07-.191 4.608 0 .017.021.034.041.063h15.985v-.001zm-16.04-21.874c0 .59-.01 1.146.002 1.7.019.807-.031 1.627.101 2.416.742 4.45 4.983 7.298 9.531 6.444 3.314-.623 6.004-3.414 6.327-6.677.124-1.258.056-2.534.074-3.802 0-.027-.027-.052-.041-.081h-15.994zm8.026-.444h7.783c.409 0 .818.01 1.227-.01a1.057 1.057 0 0 0 1.021-1.057c.005-.653-.481-1.09-1.222-1.09H145.66c-.064 0-.129 0-.194.003-.527.04-.957.44-1.012.94-.057.542.247 1.02.769 1.163.182.05.383.05.575.05 2.897.004 5.791.002 8.687.002l-.002-.001zm-.01 24.917h3.294c1.862 0 3.725.003 5.586-.002.673 0 1.148-.446 1.159-1.058.01-.631-.458-1.082-1.148-1.097-.355-.007-.71-.002-1.065-.002h-15.628c-.409 0-.818-.012-1.226.012-.554.03-.975.475-.996 1.012-.026.67.462 1.133 1.21 1.133 2.938.002 5.877 0 8.815 0l-.001.002z" fill="#75848E"/><path d="M163.657 70l.171-.47-.083-.03h-.088v.5zm.269.097l-.167.471h.001l.166-.471zm1.014 1.674l.493.085-.493-.085zm-1.487 1.255l-.016-.5h-.001l.017.5zm-.505 0v-.5h-.5v.5h.5zm0 .342l.5.008v-.008h-.5zm-.065 3.428l.498.046-.498-.046zm-5.991 7.054l.136.481h.002l-.138-.481zm-.388.12l-.15-.476-1.458.458 1.447.492.161-.473zm1.083.372l-.18.466h.001l.179-.466zm5.361 7.591l.5-.004-.5.004zm0 2.994h-.5v.5h.5v-.5zm.465 0l.01-.5h-.005l-.005.5zm1.543 1.466l.5-.009-.5.01zm-1.491 1.554l.026.499h.002l-.028-.5zm-19.458-1.492l-.5.004.5-.004zm1.512-1.528l-.012-.5h-.002l.014.5zm.496 0v.5h.5v-.5h-.5zm0-.35l-.5-.008v.008h.5zm.07-3.49l.498.043-.498-.044zm5.991-6.985l.133.482h.002l-.135-.482zm.388-.114l.143.48 1.382-.41-1.339-.535-.186.465zm-.302-.118l.142-.479h-.003l-.139.48zm-6.147-8.017h-.5v.001h.5zm0-2.827h.5v-.5h-.5v.5zm-.442 0l-.008.5h.002l.006-.5zm-1.557-1.287l-.495.07.495-.07zm1.139-1.68l-.129-.483-.012.004.141.48zm.147-.059v-.5h-.1l-.092.038.192.462zm17.188 21.743l-.5.011.5-.011zm-.168-1.37l.489-.105-.489.106zm-7.935-6.173l.008.5-.008-.5zm-7.725 6.044l.487.112-.487-.112zm-.191 4.608l-.5-.01v.01h.5zm.041.063l-.417.277.149.223h.268v-.5zm15.985 0v.5h.5v-.5h-.5zm-16.04-21.875v-.5h-.5v.5h.5zm.002 1.7l-.5.012.5-.011zm.101 2.416l.494-.082-.494.082zm9.531 6.444l.092.491-.092-.491zm6.327-6.677l.498.05-.498-.05zm.074-3.802l.5.007v-.007h-.5zm-.041-.081l.45-.218-.136-.282h-.314v.5zm-7.968-.444v-.5h-1.231l.882.858.349-.358zm9.01-.01l-.025-.5.025.5zm1.021-1.057l.5.005-.5-.005zm-19.048-1.087l-.026-.5-.011.002.037.498zm-1.012.94l-.497-.055v.001l.497.053zm.769 1.163l-.131.482.131-.482zm.575.05l.001-.5h-.001v.5zm8.687.002v.5h1.231l-.882-.858-.349.358zm-.012 24.916l-.349-.358-.881.858h1.23v-.5zm8.88-.002v-.5h-.001l.001.5zm1.159-1.058l.5.009-.5-.009zm-1.148-1.097l.011-.5h-.002l-.009.5zm-17.919.01l.028.5h.002l-.03-.5zm-.996 1.012l.5.02-.5-.02zm1.21 1.133v-.5.5zm8.815 0l.349.358.881-.858h-1.23v.5zm9.013-27.04l.272.097.335-.942a47.234 47.234 0 0 1-.266-.096l-.341.94zm.273.097c.492.174.768.652.687 1.118l.986.17c.168-.97-.413-1.904-1.34-2.23l-.333.942zm.688 1.117c-.08.46-.491.825-1.011.841l.032 1c.969-.031 1.799-.718 1.964-1.67l-.985-.17zm-1.012.841c-.14.005-.261 0-.488 0v1c.181 0 .361.005.522 0l-.034-1zm-.988.5V73.369h1v-.001-.002-.001-.001-.001-.002-.001-.001-.001-.001-.001-.001-.001-.001-.001-.001-.001-.001-.001-.001-.002-.001-.001-.001-.001-.001-.002-.002-.001-.001-.001-.001-.001-.002-.002-.001-.001-.001-.001-.001-.001-.001-.002-.001-.001-.001-.001-.001-.001-.001-.002-.001-.001-.001-.001-.001-.002-.002-.001-.001-.001-.001-.001-.002-.002-.002-.001-.001-.001-.001-.001-.002-.002-.001-.001-.001-.001-.001-.001-.001-.002-.001-.001-.002-.001-.001-.001-.001-.001-.001-.001-.002-.002-.001-.001-.002-.001-.001-.001-.001-.001-.001-.001-.001-.001-.002-.001-.001-.001-.001-.002-.001-.001-.001-.001-.001-.001-.001-.001-.001-.001-.001-.001-.001-.002-.002-.001-.001-.002-.001-.001-.001-.001-.002-.001-.001-.001-.001-.001-.001-.001-.001-.001-.001-.001-.001-.001-.001-.001-.001-.001-.001-.001-.001-.001-.001-.001-.001-.001-.001-.001-.001-.001-.001-.001-.001-.001-.001-.001-.001-.001-.001-.001-.001-.002-.002-.001-.001-.002-.002-.002-.002-.002-.001-.001-.001-.001-.001-.001-.001-.001-.001-.001-.001-.002-.002-.002-.002-.001-.001-.001-.001-.001-.001-.001-.001-.001-.002-.002-.001-.001-.001-.001-.001-.002-.001-.001-.002-.001-.001-.001-.001-.001-.001-.001-.002-.001-.001-.001-.001-.001-.001-.001-.002-.001-.001-.001-.002-.002-.002-.001-.001-.001-.002-.002-.001-.001-.001-.001-.001-.002-.001-.002-.002-.001-.001-.001-.001-.001-.002-.001-.002-.002-.001-.001-.001-.001-.001-.001-.001-.001-.002-.001-.001-.001-.002-.002-.001-.001-.001-.001-.001-.001h-1zm0 .334c-.018 1.19.04 2.277-.063 3.39l.996.092c.107-1.16.05-2.369.067-3.466l-1-.016zm-.063 3.39c-.286 3.091-2.544 5.728-5.632 6.62l.277.96c3.46-1 6.025-3.963 6.351-7.488l-.996-.092zm-5.629 6.619c-.118.033-.241.074-.402.125l.3.954c.184-.058.275-.089.374-.117l-.272-.962zm-.413 1.075c.428.145.742.24 1.064.364l.361-.933c-.346-.134-.72-.248-1.104-.378l-.321.947zm1.065.364c3.029 1.162 5.01 3.977 5.04 7.13l1-.01c-.034-3.576-2.282-6.749-5.682-8.053l-.358.933zm5.04 7.13c.008.982 0 1.957 0 2.99h1c0-1.02.008-2.012 0-3l-1 .01zm.5 3.49c.179 0 .315-.002.459 0l.011-1c-.15-.002-.307 0-.47 0v1zm.455 0c.615.011 1.043.452 1.053.975l1-.02c-.022-1.106-.929-1.934-2.033-1.956l-.02 1zm1.053.975c.01.551-.408 1.01-1.018 1.044l.055.999c1.116-.062 1.984-.942 1.963-2.062l-1 .019zm-1.017 1.044c-.047.003-.086.001-.168.001v1c.047 0 .138.002.22-.002l-.052-.999zm-.168.001H145.692v1H163.271v-1zm-17.579 0c-.755 0-1.18-.451-1.185-.998l-1 .01c.012 1.195.986 1.988 2.185 1.988v-1zm-1.185-.997c-.005-.555.424-1.007 1.026-1.024l-.028-1c-1.122.031-2.007.91-1.998 2.032l1-.008zm1.023-1.024c.144-.003.272 0 .485 0v-1c-.182 0-.351-.003-.508 0l.023 1zm.985-.5v-.001-.001-.002-.001-.002-.001-.002-.001-.002-.001-.002-.001-.002-.001-.002-.001-.001-.001-.001-.001-.001-.001-.001-.001-.001-.001-.001-.002-.001-.002-.001-.002-.001-.002-.001-.001-.001-.002-.001-.002-.001-.001-.001-.002-.001-.001-.001-.001-.001-.001-.002-.001-.001-.001-.002-.001-.002-.001-.001-.001-.001-.001-.001-.001-.001-.002-.001-.001-.001-.002-.001-.001-.001-.001-.001-.002-.001-.001-.001-.002-.001-.001-.001-.001-.001-.002-.001-.001-.001-.002-.001-.001-.001-.002-.002-.001-.001-.001-.001-.001-.002-.002-.001-.001-.001-.002-.002-.002-.001-.001-.001-.001-.001-.002-.002-.001-.001-.001-.001-.001-.001-.001-.001-.001-.002-.002-.001-.001-.001-.001-.001-.001-.001-.002-.001-.001-.002-.002-.002-.002-.001-.001-.001-.001-.001-.001-.001-.001-.001-.001-.001-.001-.001-.001-.001-.002-.001-.001-.001-.001-.002-.001-.001-.001-.001-.002-.001-.001-.001-.001-.002-.001-.001-.001-.001-.002-.001-.001-.001-.001-.002-.001-.001-.001-.001-.001-.001-.001-.001-.001-.001-.001-.001-.001-.001-.001-.001-.001-.001-.001-.001-.001-.002-.002-.002-.002-.001-.001-.002-.001-.001-.001-.001-.001-.001-.001-.001-.001-.002-.002-.002-.002-.001-.001-.001-.001-.001-.001-.001-.001-.001-.002-.002-.002-.001-.001-.001-.001-.001-.001-.001-.002-.001-.001-.001-.001-.001-.001-.001-.001-.001-.001-.001-.002-.002-.001-.001-.001-.001-.001-.001-.001-.001-.001-.002-.001-.001-.002-.001-.001-.001-.001-.001-.002-.002-.001-.001-.001-.001-.001-.001-.001-.001-.001-.001-.001h-1V94.927h1zm0-.342c.02-1.205-.031-2.32.068-3.455l-.996-.087c-.103 1.178-.053 2.404-.072 3.525l1 .017zm.068-3.455c.262-3 2.613-5.717 5.626-6.546l-.265-.964c-3.391.933-6.056 3.981-6.357 7.423l.996.087zm5.628-6.547c.108-.03.216-.063.396-.116l-.285-.959c-.187.056-.282.085-.381.112l.27.963zm.439-1.06c-.112-.044-.236-.1-.346-.132l-.284.959c.051.015.08.03.259.102l.371-.929zm-.349-.133c-3.516-1.017-5.781-3.98-5.786-7.537l-1 .001c.006 4.016 2.579 7.36 6.508 8.497l.278-.96zm-5.786-7.537v-.004-.005-.005-.005-.005-.005-.005-.005-.004-.005-.005-.005-.005-.005-.004-.005-.005-.005-.005-.005-.005-.005-.004-.005-.005-.005-.005-.005-.004-.005-.005-.005-.005-.005-.005-.004-.005-.005-.005-.005-.005-.004-.005-.005-.005-.005-.005-.005-.005-.004-.005-.005-.005-.005-.005-.004-.005-.005-.005-.005-.005-.005-.005-.004-.005-.005-.005-.005-.005-.005-.004-.005-.005-.005-.005-.005-.004-.005-.005-.005-.005-.005-.005-.004-.005-.005-.005-.005-.005-.005-.004-.005-.005-.005-.005-.005-.005-.004-.005-.005-.005-.005-.005-.004-.005-.005-.005-.005-.005-.005-.005-.004-.005-.005-.005-.005-.005-.004-.005-.005-.005-.005-.005-.005-.005-.004-.005-.005-.005-.005-.005-.004-.005-.005-.005-.005-.005-.005-.004-.005-.005-.005-.005-.005-.004-.005-.005-.005-.005-.005-.005-.005-.004-.005-.005-.005-.005-.005-.004-.005-.005-.005-.005-.005-.005-.005-.004-.005-.005-.005-.005-.005-.005-.004-.005-.005-.005-.005-.005-.004-.005-.005-.005-.005-.005-.005-.005-.004-.005-.005-.005-.005-.005-.004-.005-.005-.005-.005-.005-.005-.004-.005-.005-.005-.005-.005-.005-.004-.005-.005-.005-.005-.005-.005-.004-.005-.005-.005-.005-.005-.004-.005-.005-.005-.005-.005-.005-.005-.004-.005-.005-.005-.005-.005-.004-.005-.005-.005-.005-.005-.005-.005-.004-.005-.005-.005-.005-.005-.005-.004-.005-.005-.005-.005-.005-.004-.005-.005-.005-.005-.005-.005-.005-.004-.005-.005-.005-.005-.005-.004-.005-.005-.005-.005-.005-.005-.005-.004-.005-.005-.005-.005-.005-.004-.005-.005-.005-.005-.005-.005-.004-.005-.005-.005-.005-.005-.005-.005-.004-.005-.005-.005-.005-.005-.004-.005-.005-.005-.005-.005-.005-.005-.004-.005-.005-.005-.005-.005-.004-.005-.005-.005-.005-.005-.005-.005-.004-.005-.005-.005-.005-.005-.004-.005-.005-.005-.005-.005-.005-.004-.005-.005-.005-.005-.005-.005-.005-.004-.005-.005-.005-.005-.005-.004-.005-.005-.005-.005-.005-.005-.005-.004-.005-.005-.005-.005-.005-.005-.004-.005-.005-.005-.005-.005-.005-.004-.005-.005-.005-.005-.005-.005-.005-.004-.005-.005-.005-.005-.005-.004-.005-.005-.005-.005-.005-.005-.005-.004-.005-.005-.005-.005-.005-.005-.004-.005-.005-.005-.005-.005-.004-.005-.005-.005-.005-.005-.005-.005-.004-.005-.005-.005-.005-.005-.005-.005-.004-.005-.005-.005-.005-.005-.004-.005-.005-.005-.005-.005-.005-.005-.004-.005-.005-.005-.005-.005-.004-.005-.005-.005-.005-.005-.005-.005-.004-.005-.005-.005-.005-.005-.005-.005-.004-.005-.005-.005-.005-.005-.004-.005-.005-.005-.005-.005-.005-.005-.004-.005-.005-.005-.005-.005-.005-.004-.005-.005-.005-.005-.005-.005-.004-.005-.005-.005-.005-.005-.005-.004-.005-.005-.005-.005-.005-.005-.005-.004-.005-.005-.005-.005-.005-.005h-1V75.853h1zm0-2.487v-.001-.001-.001-.001-.001-.001-.001-.001-.001-.001-.001-.001-.001-.001-.001-.001-.001-.001-.001-.001-.001-.001-.001-.001-.001-.001-.001-.001-.001-.001-.001-.001-.001-.001-.001-.001-.001-.001-.001-.001-.001-.001-.001-.001-.001-.001-.001-.001-.001-.001-.001-.001-.001-.001-.001-.001-.001-.001-.001-.001-.001-.001-.001-.001-.001-.001-.001-.001-.001-.001-.001-.001-.001-.001-.002-.001-.002-.001-.001-.001-.001-.001-.001-.002-.001-.002-.001-.001-.001-.001-.001-.001-.001-.001-.001-.001-.001-.002-.001-.001-.001-.002-.001-.001-.001-.001-.001-.001-.001-.001-.001-.001-.001-.001-.001-.002-.001-.001-.001-.001-.001-.001-.001-.001-.001-.001-.002-.001-.001-.001-.001-.001-.001-.001-.001-.001-.001-.001-.001-.002-.001-.001-.001-.001-.001-.001-.001-.001-.001-.002-.002-.001-.001-.001-.001-.001-.001-.001-.001-.001-.001-.001-.002-.002-.002-.002-.002-.002-.001-.001-.002-.002-.002-.002-.002-.002-.001-.001-.001-.001-.001-.001-.001-.001-.001-.002-.002-.002-.001-.001-.001-.001-.001-.002-.002-.001-.001-.001-.001-.001-.002-.002-.001-.001-.001-.002-.002-.001-.002-.002-.001-.001-.001-.002-.001-.001-.001-.002-.001-.002-.002-.001-.002-.001-.001-.001-.002-.001-.002-.001-.001-.001-.001-.001-.001-.002-.001-.002-.001-.002-.001-.002-.001-.002-.001-.002-.001-.002-.001-.002-.001-.002-.001-.002-.001-.001-.001-.001-.001-.002-.001-.002-.001-.001-.002-.001-.002-.001-.001-.002-.001-.001-.001-.001-.001-.002-.001-.001-.002-.001-.001h-1V73.367h1zm-.5-.84c-.176 0-.301.002-.436 0l-.012 1c.142.002.289 0 .448 0v-1zm-.434 0c-.588-.01-1.004-.39-1.07-.858l-.99.14c.143 1.01 1.021 1.7 2.044 1.718l.016-1zm-1.07-.858c-.071-.5.216-.961.785-1.129l-.282-.96c-1.004.296-1.639 1.196-1.493 2.23l.99-.14zm.774-1.126c.061-.016.113-.038.145-.052.049-.021.041-.019.065-.028l-.385-.924-.051.023-.03.013c-.017.008-.014.006-.003.003l.259.965zm.017-.042H163.657v-1H145.302v1zm17.695 24.414c0-1.066.017-2.13-.007-3.183l-1 .023c.024 1.04.007 2.072.007 3.16h1zm-.007-3.183a7.906 7.906 0 0 0-.179-1.462l-.978.21c.091.42.147.854.157 1.275l1-.023zm-.179-1.463c-.86-3.992-4.578-6.633-8.432-6.567l.016 1c3.416-.058 6.687 2.289 7.438 5.778l.978-.21zm-8.432-6.567c-3.878.064-7.356 2.71-8.205 6.432l.975.222c.739-3.239 3.794-5.597 7.246-5.655l-.016-1zm-8.205 6.432c-.186.815-.226 1.626-.227 2.41 0 .82.039 1.521.024 2.3l1 .019c.015-.76-.024-1.6-.024-2.319.001-.754.041-1.479.202-2.188l-.975-.222zm-.203 4.72a.519.519 0 0 0 .116.33.26.26 0 0 1 .013.017l.004.005-.009-.013.833-.553a.619.619 0 0 0-.038-.053l-.009-.011c-.002-.003-.001-.002 0 0a.47.47 0 0 1 .09.277h-1zm.541.562h15.985v-1h-15.985v1zm16.485-.5v-.001h-1v.001h1zm-17.04-21.875c0 .577-.01 1.15.002 1.712l1-.022c-.012-.548-.002-1.087-.002-1.69h-1zm.002 1.713c.018.747-.032 1.65.108 2.486l.987-.166c-.125-.742-.074-1.479-.095-2.344l-1 .024zm.108 2.486c.79 4.741 5.309 7.755 10.116 6.852l-.184-.982c-4.288.805-8.253-1.877-8.945-6.035l-.987.165zm10.116 6.852c3.517-.66 6.386-3.62 6.733-7.118l-.995-.099c-.3 3.026-2.811 5.65-5.922 6.235l.184.982zm6.733-7.119c.126-1.285.059-2.623.075-3.844l-.999-.013c-.019 1.313.05 2.527-.071 3.76l.995.097zm.076-3.85a.553.553 0 0 0-.09-.304.718.718 0 0 1-.017-.025l.004.005a.279.279 0 0 1 .012.024l-.9.435a.728.728 0 0 0 .042.074l.009.014c.002.003.001.002 0 0-.002-.004-.016-.025-.029-.058a.442.442 0 0 1-.031-.166h1zm-.541-.582h-15.994v1h15.994v-1zm-7.968.556H162.266v-1H154.483v1zm7.783 0c.392 0 .826.01 1.252-.011l-.05-.999c-.392.02-.776.01-1.202.01v1zm1.252-.011a1.557 1.557 0 0 0 1.496-1.551l-1-.01a.557.557 0 0 1-.546.562l.05.999zm1.496-1.552a1.518 1.518 0 0 0-.498-1.166c-.323-.29-.757-.428-1.224-.428v1c.274 0 .454.08.557.173a.52.52 0 0 1 .165.413l1 .008zm-1.722-1.594H145.66v1H163.292v-1zm-17.632 0c-.062 0-.14 0-.22.004l.053.999c.049-.003.1-.003.167-.003v-1zm-.231.005c-.75.055-1.39.626-1.472 1.383l.994.108c.027-.243.247-.472.552-.494l-.074-.997zm-1.472 1.384c-.082.77.359 1.487 1.135 1.7l.263-.966c-.269-.073-.437-.311-.403-.628l-.995-.106zm1.135 1.7c.257.069.524.068.706.068v-1c-.202 0-.336-.005-.444-.034l-.262.965zm.706.068c2.896.003 5.791.001 8.687.001v-1c-2.897 0-5.79.002-8.686-.001l-.001 1zm9.036-.857l-.002-.002-.698.717.002.002.698-.717zm-.361 25.774H157.767v-1H154.473v1zm3.294 0c1.86 0 3.725.003 5.588-.002l-.003-1c-1.861.005-3.722.002-5.585.002v1zm5.586-.002c.915 0 1.643-.634 1.659-1.55l-1-.016c-.005.309-.227.566-.659.566v1zm1.659-1.55a1.532 1.532 0 0 0-.466-1.149c-.304-.292-.72-.446-1.171-.456l-.022 1c.238.005.403.084.502.179.096.092.16.226.157.41l1 .016zm-1.639-1.605c-.361-.007-.729-.002-1.074-.002v1c.365 0 .706-.005 1.055.002l.019-1zm-1.074-.002H146.671v1H162.299v-1zm-15.628 0c-.39 0-.828-.012-1.255.013l.059.998c.387-.022.767-.01 1.196-.01v-1zm-1.253.013a1.55 1.55 0 0 0-1.468 1.492l.999.039a.552.552 0 0 1 .524-.533l-.055-.998zm-1.468 1.492c-.019.467.145.895.471 1.201.322.303.761.451 1.238.451v-1c-.272 0-.45-.083-.553-.18-.098-.091-.165-.23-.157-.433l-.999-.04zm1.708 1.652c2.939.002 5.879 0 8.816 0v-1c-2.938 0-5.877.002-8.815 0l-.001 1zm8.468-.858l-.002.002.698.716.001-.002-.697-.716z" fill="#75848E" mask="url(#a)"/><path d="M162.628 94.455h-16.234c-.019-.028-.04-.045-.04-.062.03-1.504-.16-3.016.193-4.507.804-3.404 4.123-5.851 7.844-5.91 3.692-.06 7.24 2.38 8.058 6.037.097.439.159.891.17 1.339.025 1.023.007 2.048.007 3.101l.002.002z" fill="#ECF0F2"/><path d="M146.458 73.04h15.998c.014.027.04.054.04.081-.017 1.268.051 2.545-.073 3.802-.324 3.263-3.015 6.054-6.327 6.677-4.548.856-8.788-1.994-9.531-6.444-.131-.789-.082-1.609-.101-2.415-.014-.555-.002-1.11-.002-1.701h-.004zm14.72 3.339c0-.175.027-.327-.01-.464-.019-.074-.14-.157-.224-.167-.056-.007-.147.099-.187.172-.033.058-.012.143-.017.216-.161 2.322-1.266 4.067-3.358 5.205-.075.04-.171.068-.218.13-.051.064-.102.195-.068.24.048.065.167.105.26.113.063.007.136-.053.201-.088 2.188-1.169 3.361-2.984 3.62-5.359l.001.002zM154.484 72.597l-8.687-.001c-.192 0-.391 0-.575-.051-.522-.141-.826-.62-.769-1.164.053-.5.483-.9 1.012-.939.065-.005.13-.003.194-.003h17.632c.741 0 1.227.439 1.222 1.09a1.058 1.058 0 0 1-1.021 1.057c-.407.02-.818.01-1.227.01h-7.783l.002.001zM154.475 97.514h-8.816c-.748 0-1.236-.462-1.21-1.132.021-.54.444-.982.996-1.013.408-.022.818-.011 1.226-.011h15.628c.355 0 .71-.005 1.065.001.69.016 1.157.466 1.148 1.098-.01.612-.486 1.056-1.159 1.058-1.861.005-3.724.001-5.586.001h-3.294l.002-.002z" fill="#ECF0F2"/><path d="M161.178 76.379c-.259 2.375-1.432 4.19-3.62 5.358-.066.036-.138.096-.201.089-.094-.01-.213-.048-.26-.114-.034-.044.017-.175.068-.24.047-.061.143-.089.218-.13 2.092-1.14 3.197-2.884 3.358-5.205.005-.073-.016-.158.017-.216.04-.073.13-.177.187-.172.084.01.205.094.224.167.037.138.01.29.01.465l-.001-.002z" fill="#75848E"/></svg>