<svg xmlns="http://www.w3.org/2000/svg" viewBox="0 0 128 128"><path d="M82.9 22.5c-1.2 0-2.3.1-3.5.3 1.5 1.3 2.8 2.8 3.9 4.4 8.6.3 15.6 7.3 15.6 16 0 8-5.9 14.7-13.6 15.8-1 1.7-2.1 3.3-3.4 4.8h1c11.4 0 20.7-9.3 20.7-20.7 0-11.3-9.3-20.6-20.7-20.6zm.3 41.4H83c3.5 1.6 6.6 3.5 9.4 5.7 12.8 3 22.1 11.9 22.1 22.5 0 2.3-3.3 4.2-8.3 5.6-.1 1.7-.4 3.4-.9 5.1 8-2 13.9-5.4 13.9-10.7.1-15.6-16.1-28.2-36-28.2zm-31.9 3.6c-15.2 0-27.5-12.3-27.5-27.5s12.3-27.5 27.5-27.5S78.8 24.8 78.8 40c0 15.1-12.4 27.5-27.5 27.5zm0-50c-12.4 0-22.5 10.1-22.5 22.5s10.1 22.5 22.5 22.5S73.8 52.4 73.8 40 63.7 17.5 51.3 17.5zm1 98c-11.6 0-22.5-1.2-30.6-3.3-10.3-2.7-15.4-6.8-15.4-12.2 0-18.7 20.6-34 46-34s46 15.3 46 34c0 11.5-24.8 15.5-46 15.5zm0-44.5c-22.6 0-41 13-41 29 0 5.1 15.7 10.5 41 10.5s41-5.5 41-10.5c0-16-18.4-29-41-29z"/></svg>