<svg xmlns="http://www.w3.org/2000/svg" viewBox="0 0 128 128"><path d="M89.3 34.6c-.3-.3-.7-.6-1.1-.9l-.2-.1 6.6-7.4c.9-1 .8-2.6-.2-3.5-1-.9-2.6-.8-3.5.2l-7.7 8.6c-5.3-2.3-11-3.6-16.7-3.9.1-.3.1-.5.1-.8 0-2.2-1.8-4-4-4s-4 1.8-4 4c0 .3.1.7.1 1-5.3.6-10.5 2-15.3 4.3l-8.2-9.2c-.9-1-2.5-1.1-3.5-.2-1 .9-1.1 2.5-.2 3.5l7.4 8.3c-14.6 8.8-23.7 24.6-23.7 41.6 0 26.9 21.8 48.7 48.7 48.7s48.7-21.8 48.7-48.7c.1-16.9-8.8-32.8-23.3-41.5zm-27.6-7.9c0-.6.4-1 1-1s1 .4 1 1c0 .3-.1.5-.3.7h-1.3c-.3-.1-.4-.4-.4-.7zm2.3 93.1c-24.1 0-43.7-19.6-43.7-43.7 0-15.6 8.5-30.1 22.1-37.9.3-.1.5-.3.7-.4l.4-.2c6.4-3.5 13.3-5.2 20.6-5.2 7.1 0 14.3 1.8 20.7 5.3l.9.3.3.3.2.2.3.2c13.1 7.8 21.2 22.1 21.2 37.4 0 24.1-19.6 43.7-43.7 43.7zM88.3 52c1.2 1.1 1.4 3 .3 4.2L66.3 81.8c-.6.7-1.4 1-2.3 1-.7 0-1.4-.2-2-.7l-.2-.2c-.6 0-1.3-.3-1.8-.7L48 70.9c-1.3-1.1-1.4-3-.3-4.2 1.1-1.3 3-1.4 4.2-.3l11.4 9.7L84 52.3c1.1-1.3 3-1.4 4.3-.3zM51.6 21.2c3.1.7 7.2 1.1 11.6 1.1 6.9 0 18.5-.9 18.5-6.6 0-7-8.1-12.5-18.5-12.5S44.7 8.7 44.7 15.7c0 3.9 5.2 5.1 6.9 5.5zm11.6-13c6.9 0 13.1 3.3 13.5 7.1-1.1.8-5.8 2-13.5 2s-12.3-1.3-13.5-2c.4-3.8 6.5-7.1 13.5-7.1z"/></svg>