<svg version="1.1" id="Layer_1" xmlns="http://www.w3.org/2000/svg" x="0" y="0" width="385" height="900" style="enable-background:new 0 0 385 900" xml:space="preserve"><style>.st1,.st3{fill:#fff;stroke:#313949;stroke-width:1.5742;stroke-miterlimit:10}.st3{fill:none;stroke-width:1.5;stroke-linecap:round;stroke-linejoin:round}.st4{fill:#313949}.st5{fill:#fff}.st6{fill:#4d88e7}.st7{stroke-linecap:round}.st11,.st13,.st7,.st8,.st9{fill:none;stroke:#313949;stroke-width:1.5;stroke-miterlimit:10}.st11,.st13,.st9{stroke:#f19c2f}.st11,.st13{stroke:#f26464}.st13{stroke:#10b19d}.st15{fill:#3b85e9}.st16,.st18{stroke-miterlimit:10}.st16{fill:none;stroke:#fff;stroke-width:2;stroke-linecap:round;stroke-linejoin:round}.st18{fill:#fff;stroke:#313949;stroke-width:1.5}.st20,.st21,.st24,.st26,.st28,.st30,.st31{fill:none;stroke:#fff;stroke-width:1.5;stroke-miterlimit:10}.st21,.st24,.st26,.st28,.st30,.st31{stroke-linecap:round}.st24,.st26,.st28,.st30,.st31{stroke:#f26464}.st26,.st28,.st30,.st31{stroke:#f19c2f}.st28,.st30,.st31{stroke:#10b19d}.st30,.st31{stroke:#3880df;stroke-width:2}.st31{stroke:#313949}.st34{fill-rule:evenodd;clip-rule:evenodd;fill:#fff}.st45{stroke:#4d5568}.st45,.st47,.st53,.st54{fill:none;stroke-width:1.5;stroke-miterlimit:10}.st47{stroke:#fff;stroke-linecap:square}.st53,.st54{stroke:#4b556a}.st54{stroke:#4d5568;stroke-linecap:round}.st56{fill:#424d5c}.st57{fill:#4e5566}.st60,.st61{fill:none;stroke-width:1.5}.st60{stroke:#1792e6;stroke-miterlimit:10}.st61{stroke:#4b556a;stroke-linecap:round;stroke-linejoin:round}.st61,.st63,.st65{stroke-miterlimit:10}.st63{fill:none;stroke:#4b556a;stroke-width:2}.st65{stroke:#22ab73;stroke-linecap:round}.st65,.st68,.st71{fill:none;stroke-width:1.5}.st68{stroke:#313949;stroke-linecap:round;stroke-linejoin:round}.st71{stroke:#ff4121;stroke-miterlimit:10}.st74{stroke:#4b7ad8;stroke-linejoin:round}.st74,.st75,.st79,.st81,.st82,.st83{fill:none;stroke-width:1.5;stroke-linecap:round}.st75{stroke:#31af49;stroke-linejoin:round;stroke-miterlimit:10}.st79,.st81,.st82,.st83{stroke:#434955}.st81,.st82,.st83{stroke:#f26464}.st82,.st83{stroke:#e29163;stroke-linejoin:round;stroke-miterlimit:10}.st83{stroke:#000}.st84{fill:none;stroke:#313949}</style><path style="opacity:.15;fill:#31af49;enable-background:new" d="M144.1 160.8H157v9.6h-12.9z"/><path class="st1" d="M99.1 93.2h-9.2c-1.2 0-2.1-.9-2.1-2.1v-9.2c0-1.2.9-2.1 2.1-2.1h9.2c1.2 0 2.1.9 2.1 2.1v9.2c-.1 1.2-1 2.1-2.1 2.1zM27.2 93.2H18c-1.2 0-2.1-.9-2.1-2.1v-9.2c0-1.2.9-2.1 2.1-2.1h9.2c1.2 0 2.1.9 2.1 2.1v9.2c-.1 1.2-1 2.1-2.1 2.1z"/><path d="M50.2 93.2H41c-1.2 0-2.1-.9-2.1-2.1v-9.2c0-1.2.9-2.1 2.1-2.1h9.2c1.2 0 2.1.9 2.1 2.1v9.2c-.1 1.2-1 2.1-2.1 2.1z" style="fill:#fff;stroke:#3b85e9;stroke-width:1.5742;stroke-miterlimit:10"/><path class="st3" d="m168.3 25.1-8.2-8"/><path class="st4" d="M262.2 22.2h-3l-.6 1.8h-1.4l3-7.8h1.2l3 7.8H263l-.8-1.8zm-2.7-1.1h2.3l-1.1-3.2-1.2 3.2zM266.4 22.9h4.2V24h-5.8v-.9l4-5.8h-4v-1.1h5.7v.8l-4.1 5.9zM334 20h-10l5 5zM349 17.5v10l5-5z"/><path class="st5" d="M106.5 12h-8l4 4z"/><path class="st4" d="M106.5 23h-8l4 4z"/><path id="SVGID_1_" transform="rotate(-45.017 53.2 52.75)" class="st6" d="M51.5 50.5h3.4V55h-3.4z"/><path class="st3" d="m160.1 25.1 8.2-8.1"/><path id="SVGID_3_" class="st6" d="M42 60.6V64h3.4l6.9-6.8-3.5-3.5z"/><path id="SVGID_5_" transform="rotate(-45.017 26.2 52.75)" class="st4" d="M24.5 50.5h3.4V55h-3.4z"/><path id="SVGID_7_" class="st4" d="M15 60.6V64h3.4l6.9-6.8-3.5-3.5z"/><circle class="st4" cx="171" cy="40" r="2"/><path class="st7" d="M171 40h4M160 40h6"/><circle class="st4" cx="164" cy="48" r="2"/><path class="st7" d="M164 48h-4M175 48h-6"/><path class="st8" d="M281.3 54h-11.6c-.4 0-.7-.3-.7-.7V42.7c0-.4.3-.7.7-.7h11.6c.4 0 .7.3.7.7v10.6c0 .4-.3.7-.7.7zM298 39.2h4.9M305 39.2h1c.4 0 .7.4.7.9v13.2c0 .5-.3.9-.7.9h-11.6c-.4 0-.7-.4-.7-.9V40c0-.5.3-.9.7-.9h1.6"/><path class="st4" d="M276 47h2c.6 0 1 .4 1 1v2c0 .6-.4 1-1 1h-2c-.6 0-1-.4-1-1v-2c0-.6.4-1 1-1z"/><path class="st3" d="m297.5 46.6 2 2 4-4.1"/><path class="st9" d="M111.7 107.2h4.9M118.4 107.2h1.6c.4 0 .7.4.7.9v13.2c0 .5-.3.9-.7.9h-11.6c-.4 0-.7-.4-.7-.9V108c0-.5.3-.9.7-.9h1.6"/><path style="fill:none;stroke:#f19c2f;stroke-width:1.5;stroke-linecap:round;stroke-linejoin:round;stroke-miterlimit:10" d="m111.5 114.6 2 2 4-4.1"/><path class="st11" d="M88.5 107.2h4.9M95.2 107.2h1.6c.4 0 .7.4.7.9v13.2c0 .5-.3.9-.7.9H85.2c-.4 0-.7-.4-.7-.9V108c0-.5.3-.9.7-.9h1.6"/><path style="fill:none;stroke:#f26464;stroke-width:1.5;stroke-linecap:round;stroke-linejoin:round;stroke-miterlimit:10" d="m88.3 114.6 2 2 4-4.1"/><path class="st13" d="M134.7 107.2h4.9M141.4 107.2h1.6c.4 0 .7.4.7.9v13.2c0 .5-.3.9-.7.9h-11.6c-.4 0-.7-.4-.7-.9V108c0-.5.3-.9.7-.9h1.6"/><path style="fill:none;stroke:#10b19d;stroke-width:1.5;stroke-linecap:round;stroke-linejoin:round;stroke-miterlimit:10" d="m134.5 114.6 2 2 4-4.1"/><path class="st8" d="M325.5 51.3s2.9 2.3 6.1 2.7c0 0 2.3.5 3.8-1.2 0 0 1.1-.7.1-1.8l-2.4-2.2s-.6-.6-1.5-.1l-1.4 1.3s-4-1.9-5.6-5.1l1.1-1s1.1-.9 0-1.9l-2.4-2.2s-.9-.5-1.7.1c0 0-2.1 1.6-1.4 4.3-.1 0 0 2.8 5.3 7.1z"/><path class="st15" d="M65 93c-.6 0-1-.4-1-1V81c0-.6.4-1 1-1h11c.6 0 1 .4 1 1v11c0 .6-.4 1-1 1H65z"/><path class="st15" d="M76 81v11H65V81h11m0-2H65c-1.1 0-2 .9-2 2v11c0 1.1.9 2 2 2h11c1.1 0 2-.9 2-2V81c0-1.1-.9-2-2-2z"/><path class="st16" d="m67.5 86.6 2 2 4-4.2"/><path class="st3" d="M92.4 86.7h4"/><path class="st4" d="M17 13h1c.6 0 1 .4 1 1v1c0 .6-.4 1-1 1h-1c-.6 0-1-.4-1-1v-1c0-.6.4-1 1-1zM20 13.8c0-.4.4-.8.8-.8h9.4c.4 0 .8.3.8.8v1.5c0 .4-.3.8-.8.8h-9.4c-.4 0-.8-.3-.8-.8v-1.5zM17 18h1c.6 0 1 .4 1 1v1c0 .6-.4 1-1 1h-1c-.6 0-1-.4-1-1v-1c0-.6.4-1 1-1zM20 18.8c0-.4.4-.8.8-.8h9.4c.4 0 .8.3.8.8v1.5c0 .4-.3.8-.8.8h-9.4c-.4 0-.8-.3-.8-.8v-1.5zM17 23h1c.6 0 1 .4 1 1v1c0 .6-.4 1-1 1h-1c-.6 0-1-.4-1-1v-1c0-.6.4-1 1-1zM20 23.8c0-.4.4-.8.8-.8h9.4c.4 0 .8.3.8.8v1.5c0 .4-.3.8-.8.8h-9.4c-.4 0-.8-.3-.8-.8v-1.5zM54 16.5v4c0 .3-.2.5-.5.5h-2c-.3 0-.5-.2-.5-.5v-4c0-.3.2-.5.5-.5h2c.3 0 .5.2.5.5zM56 13.5v1c0 .3-.2.5-.5.5h-14c-.3 0-.5-.2-.5-.5v-1c0-.3.2-.5.5-.5h14c.3 0 .5.2.5.5zM50 16.5v9c0 .3-.2.5-.5.5h-2c-.3 0-.5-.2-.5-.5v-9c0-.3.2-.5.5-.5h2c.3 0 .5.2.5.5zM46 16.5v9c0 .3-.2.5-.5.5h-2c-.3 0-.5-.2-.5-.5v-9c0-.3.2-.5.5-.5h2c.3 0 .5.2.5.5z"/><path style="fill:none;stroke:#313949;stroke-width:1.5;stroke-linejoin:round;stroke-miterlimit:10" d="m116.7 85.9-5-6.2h14l-5 6v4.1l-4 3z"/><path class="st3" d="m364.5 69-5 5 5 5M73.2 53c-.7.2-1.7 1-1.7 1-.2.1-.3.2-.4.3-1.2 1-2 2.5-2 4.2 0 3 2.5 5.5 5.5 5.5s5.5-2.5 5.5-5.5c0-1.5-.6-2.8-1.5-3.8"/><path class="st3" d="M69.5 52H74v4"/><g id="drag_dots_arrange_1_"><circle class="st4" cx="92.3" cy="54.1" r="1"/><circle class="st4" cx="95.3" cy="54.1" r="1"/><circle class="st4" cx="92.3" cy="58.1" r="1"/><circle class="st4" cx="95.3" cy="58.1" r="1"/><circle class="st4" cx="92.3" cy="62.1" r="1"/><circle class="st4" cx="95.3" cy="62.1" r="1"/></g><path class="st18" d="M73.8 14.2h-4c-.3 0-.5.2-.5.5v4c0 .3.2.5.5.5h4c.3 0 .5-.2.5-.5v-4c0-.3-.2-.5-.5-.5zM81.8 14.2h-4c-.3 0-.5.2-.5.5v4c0 .3.2.5.5.5h4c.3 0 .5-.2.5-.5v-4c0-.3-.2-.5-.5-.5zM73.8 22.2h-4c-.3 0-.5.2-.5.5v4c0 .3.2.5.5.5h4c.3 0 .5-.2.5-.5v-4c0-.3-.2-.5-.5-.5z"/><path d="M79.8 22.2c-1.4 0-2.5 1.1-2.5 2.5s1.1 2.5 2.5 2.5 2.5-1.1 2.5-2.5-1.1-2.5-2.5-2.5z" style="fill:#313949;stroke:#313949;stroke-width:2;stroke-miterlimit:10"/><path class="st20" d="M206 77h-12v-6c0-3.3 2.7-6 6-6s6 2.7 6 6v6z"/><path class="st21" d="M192 77h16M198 81h4M200 63v2"/><path class="st20" d="M275 72v7.5c0 .8-.7 1.5-1.5 1.5h-12c-.8 0-1.5-.7-1.5-1.5v-12c0-.8.7-1.5 1.5-1.5h7.5"/><path class="st21" d="M265 72h5"/><path class="st20" d="M271 66h8M275 62v8"/><path class="st21" d="M265 76h5"/><path class="st20" d="M341.8 81.7h-14c-1.1 0-2-.9-2-2v-11c0-1.1.9-2 2-2h14c1.1 0 2 .9 2 2v11c0 1.1-.9 2-2 2z"/><path class="st21" d="M329.8 64.7v2M339.8 64.7v2"/><path class="st5" d="M335.8 73.7h5v5h-5z"/><path style="fill:none;stroke:#fff;stroke-width:1.2411;stroke-miterlimit:10" d="M326.1 68h17.1"/><circle class="st8" cx="111.9" cy="57.8" r="4.5"/><path class="st7" d="m118 63.9-2.9-2.9"/><path class="st11" d="M159 118.1s2.9 2.3 6.1 2.7c0 0 2.3.5 3.8-1.2 0 0 1.1-.7.1-1.8l-2.4-2.2s-.6-.6-1.5-.1l-1.4 1.3s-4-1.9-5.6-5.1l1.1-1s1.1-.9 0-1.9l-2.4-2.2s-.9-.5-1.7.1c0 0-2.1 1.6-1.4 4.3-.1 0 0 2.8 5.3 7.1z"/><path class="st20" d="M132 144.1s2.9 2.3 6.1 2.7c0 0 2.3.5 3.8-1.2 0 0 1.1-.7.1-1.8l-2.4-2.2s-.6-.6-1.5-.1l-1.4 1.3s-4-1.9-5.6-5.1l1.1-1s1.1-.9 0-1.9l-2.4-2.2s-.9-.5-1.7.1c0 0-2.1 1.6-1.4 4.3-.1 0 0 2.8 5.3 7.1z"/><path class="st9" d="M184 118.1s2.9 2.3 6.1 2.7c0 0 2.3.5 3.8-1.2 0 0 1.1-.7.1-1.8l-2.4-2.2s-.6-.6-1.5-.1l-1.4 1.3s-4-1.9-5.6-5.1l1.1-1s1.1-.9 0-1.9l-2.4-2.2s-.9-.5-1.7.1c0 0-2.1 1.6-1.4 4.3-.1 0 0 2.8 5.3 7.1z"/><path class="st13" d="M210 118.1s2.9 2.3 6.1 2.7c0 0 2.3.5 3.8-1.2 0 0 1.1-.7.1-1.8l-2.4-2.2s-.6-.6-1.5-.1l-1.4 1.3s-4-1.9-5.6-5.1l1.1-1s1.1-.9 0-1.9l-2.4-2.2s-.9-.5-1.7.1c0 0-2.1 1.6-1.4 4.3-.1 0 0 2.8 5.3 7.1z"/><path class="st4" d="M118.1 17.6h-3.3l-.7 2H113l3-7.8h.9l3 7.8h-1.1l-.7-2zm-2.9-.9h2.6l-1.3-3.6-1.3 3.6zM121.7 18.8h4.4v.8h-5.6v-.8l4.2-6.2h-4.1v-.8h5.3v.8l-4.2 6.2zM114 32h3v3h-3zM119 32h3v3h-3zM124 32h3v3h-3z"/><path class="st7" d="M278.3 39.7v2M272.3 39.7v2"/><path class="st11" d="M28.1 122.3H16.5c-.4 0-.7-.3-.7-.7V111c0-.4.3-.7.7-.7h11.6c.4 0 .7.3.7.7v10.6c0 .4-.3.7-.7.7z"/><path d="M23 115h2c.6 0 1 .4 1 1v2c0 .6-.4 1-1 1h-2c-.6 0-1-.4-1-1v-2c0-.6.4-1 1-1z" style="fill:#f26464"/><path class="st24" d="M25.1 108v2M19.1 108v2"/><path class="st9" d="M51.1 122.3H39.5c-.4 0-.7-.3-.7-.7V111c0-.4.3-.7.7-.7h11.6c.4 0 .7.3.7.7v10.6c0 .4-.3.7-.7.7z"/><path d="M46 115h2c.6 0 1 .4 1 1v2c0 .6-.4 1-1 1h-2c-.6 0-1-.4-1-1v-2c0-.6.4-1 1-1z" style="fill:#f19c2f"/><path class="st26" d="M48.1 108v2M42.1 108v2"/><path class="st13" d="M74.1 122.3H62.5c-.4 0-.7-.3-.7-.7V111c0-.4.3-.7.7-.7h11.6c.4 0 .7.3.7.7v10.6c0 .4-.3.7-.7.7z"/><path d="M69 115h2c.6 0 1 .4 1 1v2c0 .6-.4 1-1 1h-2c-.6 0-1-.4-1-1v-2c0-.6.4-1 1-1z" style="fill:#10b19d"/><path class="st28" d="M71.1 108v2M65.1 108v2"/><path class="st7" d="M141.8 79.7v8.6M146.1 84h-8.5"/><path d="M143.2 7.5c4.2 0 7.5 3.3 7.5 7.5s-3.3 7.5-7.5 7.5-7.5-3.3-7.5-7.5 3.3-7.5 7.5-7.5m0-1.5c-5 0-9 4-9 9s4 9 9 9 9-4 9-9-4-9-9-9z" style="fill:#3880df"/><path class="st30" d="M143.2 12v6M146.2 15h-6"/><path class="st4" d="M143.2 29.5c4.2 0 7.5 3.3 7.5 7.5s-3.3 7.5-7.5 7.5-7.5-3.3-7.5-7.5 3.3-7.5 7.5-7.5m0-1.5c-5 0-9 4-9 9s4 9 9 9 9-4 9-9-4-9-9-9z"/><path class="st31" d="M143.2 34v6M146.2 37h-6"/><path d="M241.8 80.1h-16.1c-.8 0-1.4-.7-1.4-1.5v-12c0-.8.7-1.5 1.4-1.5h16.1c.8 0 1.4.7 1.4 1.5v12c0 .8-.7 1.5-1.4 1.5z" style="fill:none;stroke:#fff;stroke-width:1.462;stroke-miterlimit:10"/><path style="fill:none;stroke:#fff;stroke-width:1.462;stroke-linejoin:round;stroke-miterlimit:10" d="m224.7 67.9 9.5 5.5 8.5-5.5"/><ellipse class="st20" cx="188.7" cy="13.3" rx="3.4" ry="4"/><path class="st20" d="M197.2 19.4s.1 2-.8 3.8c-.9 1.8-14.5 1-14.5 0 0-2 3-5.9 6.6-5.9 1.5 0 3 .6 4.1 1.3l.9.7"/><ellipse class="st20" cx="198.3" cy="13.5" rx="2.3" ry="3"/><path class="st20" d="M201.1 17.6c-.8-.8-1.8-1.2-2.9-1.2-1.2 0-2.2.6-3 1.4M195.2 20.6l2-1.6 1.8 1.5"/><path id="SVGID_8_" class="st20" d="m293.7 76.8 1.7 2.8c.1.2.3.2.5.2l2.1-.8c.4.3.9.6 1.4.8l.3 2.1c.1.2.2.3.4.3h3.4c.2 0 .4-.2.4-.3l.3-2.2c.5-.2 1-.5 1.4-.8l2.1.8c.2.1.4 0 .5-.2l1.7-2.8c.1-.2.1-.4-.1-.6l-1.8-1.4c.1-.2.1-.5.1-.8 0-.2 0-.6-.1-.8l1.8-1.4c.2-.2.2-.3.1-.6l-1.7-2.8c-.1-.2-.3-.2-.5-.2l-2.1.8c-.4-.3-.9-.6-1.4-.8L304 66c-.1-.2-.2-.3-.4-.3h-3.4c-.2 0-.4.2-.4.3l-.3 2.2c-.5.2-1 .5-1.4.8l-2.1-.8c-.2-.1-.4 0-.5.2l-1.7 2.8c-.1.2-.1.4.1.6l1.8 1.4c-.1.2-.1.6-.1.8s0 .6.1.8l-1.8 1.4c-.2.2-.3.5-.2.6z"/><path id="SVGID_6_" class="st34" d="M304.5 74c0 1.5-1.2 2.6-2.6 2.6-1.5 0-2.6-1.2-2.6-2.6s1.2-2.6 2.6-2.6c1.5 0 2.6 1.1 2.6 2.6"/><path id="SVGID_4_" class="st8" d="m281.6 20.2 1.3 2.2c.1.2.2.2.4.2l1.6-.6c.3.2.7.5 1.1.6l.2 1.6c.1.2.2.2.3.2h2.6c.2 0 .3-.2.3-.2l.2-1.7c.4-.2.8-.4 1.1-.6l1.6.6c.2.1.3 0 .4-.2l1.3-2.2c.1-.2.1-.3-.1-.5l-1.4-1.1c.1-.2.1-.4.1-.6s0-.5-.1-.6l1.4-1.1c.2-.2.2-.2.1-.5l-1.3-2.2c-.1-.2-.2-.2-.4-.2l-1.6.6c-.3-.2-.7-.5-1.1-.6l-.2-1.6c-.1-.2-.2-.2-.3-.2h-2.6c-.2 0-.3.2-.3.2l-.2 1.7c-.4.2-.8.4-1.1.6l-1.6-.6c-.2-.1-.3 0-.4.2l-1.3 2.2c-.1.2-.1.3.1.5l1.4 1.1c-.1.2-.1.5-.1.6 0 .2 0 .5.1.6l-1.4 1.1c-.1.1-.2.4-.1.5z"/><path id="SVGID_2_" d="M290 18c0 1.2-.9 2-2 2-1.2 0-2-.9-2-2s.9-2 2-2 2 .8 2 2" style="fill-rule:evenodd;clip-rule:evenodd;fill:#313949"/><circle class="st20" cx="168.9" cy="70.9" r="7"/><path class="st21" d="m173.6 76.1 4.5 4.5"/><circle cx="135.9" cy="58" r="7.4" style="fill:none;stroke:#61c16c;stroke-width:1.6;stroke-miterlimit:10"/><path style="fill:none;stroke:#61c16c;stroke-width:1.6;stroke-linecap:round;stroke-linejoin:round;stroke-miterlimit:10" d="m133 57.9 2.1 2.2 4.1-4"/><circle cx="228.9" cy="45" r="7.4" style="fill:none;stroke:#d3dce8;stroke-width:1.6;stroke-miterlimit:10"/><path style="fill:none;stroke:#d3dce8;stroke-width:1.6;stroke-linecap:round;stroke-linejoin:round;stroke-miterlimit:10" d="m226 44.9 2.1 2.2 4.1-4"/><path d="M200.5 32c6.4 0 11.5 5.1 11.5 11.5S206.8 55 200.5 55 189 49.9 189 43.5 194.1 32 200.5 32z" style="fill-rule:evenodd;clip-rule:evenodd;fill:#2d84f2"/><path class="st34" d="M200.5 35.9c.9 0 1.6.7 1.6 1.6 0 .9-.7 1.6-1.6 1.6s-1.6-.7-1.6-1.6c0-.9.7-1.6 1.6-1.6z"/><path style="fill:none;stroke:#fff;stroke-width:3;stroke-linecap:round;stroke-miterlimit:10" d="M200.5 42.5v6"/><path id="Line_532" style="fill:none;stroke:#4d5568;stroke-width:1.5;stroke-linejoin:round" d="M249.5 43.6h6"/><path id="Path_843" d="M249.5 47.6h3" style="fill:none;stroke:#4d5568;stroke-width:1.5"/><path id="Path_839" d="m259.5 49.4-3.2 3.2h-.8v-2.3c0-1 .8-1.7 1.7-1.7h2.3v.8z" style="fill:#4d5568"/><path id="Path_840" class="st45" d="M245.5 50.9V40.3c0-1 .8-1.7 1.7-1.7h10.5c1 0 1.7.8 1.7 1.7v8.6c0 .2-.1.4-.2.5l-3 3c-.1.1-.3.2-.5.2h-8.6c-.9 0-1.6-.8-1.6-1.7z"/><circle id="Ellipse_84" cx="241" cy="101" r="9" style="fill:#3bbc81;stroke:#3bbc81;stroke-width:2;stroke-miterlimit:10"/><path id="Line_374" class="st47" d="M236.9 101.1h8"/><path id="Line_375" class="st47" d="M240.9 97.1v8"/><circle id="Ellipse_83" cx="268" cy="101" r="9" style="fill:#ff8585;stroke:#ff8585;stroke-width:2;stroke-miterlimit:10"/><path id="Line_373" class="st47" d="M264 101h8"/><path id="Line_378" style="fill:none;stroke:#4b556a;stroke-width:1.5;stroke-linecap:round;stroke-miterlimit:10" d="M291.2 108.8h6"/><g id="Rectangle_1012"><path d="M3.7-239.2h14.4c.7 0 1.3.6 1.3 1.3v10.4c0 .7-.6 1.3-1.3 1.3H3.7c-.7 0-1.3-.6-1.3-1.3V-238c-.2-.8.4-1.2 1.3-1.2z" style="fill:none" transform="translate(284 333)"/><path d="M3.7-238.2h14.4c.2 0 .3.1.3.3v10.4c0 .2-.1.3-.3.3H3.7c-.2 0-.3-.1-.3-.3V-238c-.2-.2 0-.2.3-.2z" style="fill:none;stroke:#4b556a;stroke-width:1.5;stroke-linecap:square;stroke-miterlimit:10" transform="translate(284 333)"/></g><circle id="Ellipse_62" cx="294.8" cy="100.2" r="2.5" style="fill:#23ae73"/><circle class="st53" cx="321.2" cy="101.8" r="8"/><path class="st53" d="M321.2 97.8v5h4-4"/><path id="Line_455" class="st54" d="m353.9 93.7-5.6 5.6"/><path id="Line_456" class="st54" d="m353.9 99.3-5.6-5.6"/><g id="Group_1276" transform="translate(-6741.506 17348.801)"><g id="Group_1275"><g id="Group_1274"><path id="Path_828" class="st45" d="M7081.6-17254.2c-.4 0-.7.2-1 .4-.5.4-.9 1-1.1 1.6-.2.4-1.8 4.6 3.3 9.4l.1.1c2.8 2.7 5.4 3.4 7.2 3.4.8 0 1.7-.1 2.4-.5.6-.2 1.1-.6 1.5-1.1.3-.3.4-.7.4-1.1-.1-.3-.2-.7-.5-.9l-2-1.9c-.3-.3-.6-.4-1-.4-.3 0-.6.1-.8.4l-1 1c-.1.1-.1.1-.2.1s-.1 0-.2-.1c-1-.5-2-1.2-2.8-2l-.1-.1c-.9-.8-1.6-1.7-2.1-2.7-.1-.2-.1-.3.1-.4l.9-1c.2-.3.3-.6.3-.9 0-.4-.2-.7-.5-.9l-2-1.9c0-.1-.3-.4-.9-.5z"/></g></g></g><path id="Path_1267" class="st53" d="M22.8 135v10.3c0 .8-.6 1.4-1.4 1.4H8.1c-.8 0-1.4-.6-1.4-1.4V135c0-.8.6-1.4 1.4-1.4h13.3c.8 0 1.4.6 1.4 1.4z"/><path id="Path_1268" d="m7.1 134.9 6.9 5.7c.5.4 1.2.4 1.9 0l6.5-5.7" style="fill:none;stroke:#4b556a;stroke-width:1.5599;stroke-miterlimit:10"/><g id="Group_3565" transform="translate(-1367 -320)"><path id="Rectangle_765" class="st56" d="M1398.8 452.6h2v2h-2z"/><path id="Rectangle_766" class="st56" d="M1403.8 452.6h2v2h-2z"/><path id="Rectangle_767" class="st56" d="M1398.8 456.6h2v2h-2z"/><path id="Rectangle_768" class="st56" d="M1403.8 456.6h2v2h-2z"/><path id="Rectangle_769" class="st56" d="M1398.8 460.6h2v2h-2z"/><path id="Rectangle_770" class="st56" d="M1403.8 460.6h2v2h-2z"/><path id="Rectangle_771" class="st56" d="M1398.8 464.6h2v2h-2z"/><path id="Rectangle_772" class="st56" d="M1403.8 464.6h2v2h-2z"/></g><g id="Vector_Smart_Object_copy_20" transform="translate(-112.724 -1178.881)"><g id="Group_189"><g id="Group_188"><path id="Path_233" class="st57" d="m164.3 1312.7-6.3 5.5 6.3 5.5v-3.7s6.2.5 8.3 2.3c1.9 1.4 2.6 1.8 2.3.9-2.5-7.6-10.7-7.8-10.7-7.8l.1-2.7z"/></g></g></g><g id="Group_185"><g id="Group_184"><path id="Path_231" class="st57" d="m83.4 134.8-6.4 5.7 6.4 5.7v-3.8s6.3.6 8.5 2.4c1.9 1.4 2.7 1.9 2.4.9-2.6-7.9-10.9-8.1-10.9-8.1v-2.8z"/></g></g><g id="Group_187"><g id="Group_186"><path id="Path_232" d="m79.8 134.8-6.4 5.7 6.4 5.7" style="fill:none;stroke:#4e5566;stroke-width:1.5;stroke-miterlimit:10"/></g></g><g id="Vector_Smart_Object_copy_20_2_" transform="translate(-175.276 -1178.881)"><g id="Group_191"><g id="Group_190"><path id="Path_234" class="st57" d="M287.5 1316.4s-8.2.2-10.7 7.8c-.3.9.4.5 2.3-.9 2.2-1.7 8.3-2.3 8.3-2.3v3.7l6.3-5.5-6.3-5.5v2.7h.1z"/></g></g></g><path d="M238.9 119c-2.4 0-3.5 1.4-3.9 2.2-2.9 5.9 7.1 11.2 7.4 11.4.3-.2 10.3-5.5 7.4-11.4-.5-.8-1.6-2.2-3.9-2.2-2.7.1-3.4 1.8-3.5 1.9-.1-.1-.8-1.8-3.5-1.9z" style="fill:#1792e6;stroke:#1792e6;stroke-width:2;stroke-miterlimit:10"/><path class="st53" d="M212.9 133c-2.4 0-3.5 1.4-3.9 2.2-2.9 5.9 7.1 11.2 7.4 11.4.3-.2 10.3-5.5 7.4-11.4-.5-.8-1.6-2.2-3.9-2.2-2.7.1-3.4 1.8-3.5 1.9-.1-.1-.8-1.8-3.5-1.9z"/><path class="st60" d="M301.6 132.9h-7.2c-1.6 0-2.8-1.3-2.8-2.8v-7.2M295.6 119.9h6.2c1.6 0 2.8 1.3 2.8 2.8v8.2"/><path class="st60" d="m288.6 124.9 3-3 3 3M307.6 126.9l-3 4-3-3"/><path class="st61" d="M192.6 145.9h-7.2c-1.6 0-2.8-1.3-2.8-2.8v-7.2M186.6 132.9h6.2c1.6 0 2.8 1.3 2.8 2.8v8.2"/><path class="st61" d="m179.6 137.9 3-3 3 3M198.6 139.9l-3 4-3-3"/><path class="st60" d="M321.9 120c-2.4 0-3.5 1.4-3.9 2.2-2.9 5.9 7.1 11.2 7.4 11.4.3-.2 10.3-5.5 7.4-11.4-.5-.8-1.6-2.2-3.9-2.2-2.7.1-3.4 1.8-3.5 1.9-.1-.1-.8-1.8-3.5-1.9z"/><g id="Vector_Smart_Object_copy_36" transform="translate(-2975.914 -2430.989)"><g id="Vector_Smart_Object_copy_36-2" transform="translate(2328.085 1517.519)"><g id="Group_50"><path id="Path_62" class="st53" d="M806.4 1055c0-.3.2-.5.5-.6 1.4-.2 5.6-.6 8.4 1.7.9.6 1.8 1.3 2.5 2.2 0 0 .3-.2 0-1.2-2.3-6.9-9-8.2-10.9-8.4-.3 0-.5-.3-.5-.6v-.9c0-.3-.2-.6-.6-.6-.2 0-.3.1-.4.2l-4.3 4.4c-.2.2-.2.6 0 .8l4.3 5.2c.2.2.6.3.8.1.1-.1.2-.3.2-.5v-1.8z"/></g></g></g><g id="Vector_Smart_Object_copy_36_1_" transform="translate(-2975.914 -2430.989)"><g id="Vector_Smart_Object_copy_36-2_1_" transform="translate(2328.085 1517.519)"><g id="Group_50_1_"><path id="Path_62_1_" class="st60" d="M916.4 1042c0-.3.2-.5.5-.6 1.4-.2 5.6-.6 8.4 1.7.9.6 1.8 1.3 2.5 2.2 0 0 .3-.2 0-1.2-2.3-6.9-9-8.2-10.9-8.4-.3 0-.5-.3-.5-.6v-.9c0-.3-.2-.6-.6-.6-.2 0-.3.1-.4.2l-4.3 4.4c-.2.2-.2.6 0 .8l4.3 5.2c.2.2.6.3.8.1.1-.1.2-.3.2-.5v-1.8z"/></g></g></g><g id="Group_4396" transform="translate(-282 -187)" style="opacity:.7"><circle id="Ellipse_136" class="st63" cx="651" cy="205" r="8"/><path id="Line_922" class="st63" d="M650.7 208.6v-5"/><path id="Line_923" class="st63" d="M650.7 202.6v-2"/></g><path class="st3" d="M356.8 133.3v-1.5c0-.8-.3-1.6-.9-2.1-.6-.6-1.3-.9-2.1-.9h-6c-.8 0-1.6.3-2.1.9-.6.6-.9 1.3-.9 2.1v1.5M350.8 125.7c1.7 0 3-1.3 3-3s-1.3-3-3-3-3 1.3-3 3 1.3 3 3 3z"/><path d="M7.8 168.4c0-5.7 4.5-10.2 10.2-10.2s10.2 4.5 10.2 10.2-4.5 10.2-10.2 10.2S7.8 174 7.8 168.4z" style="fill:none;stroke:#22ab73;stroke-width:1.5"/><path class="st65" d="M18 165.1v6.7M21.3 168.4h-6.7"/><path d="M38.8 168.4c0-5.7 4.5-10.2 10.2-10.2s10.2 4.5 10.2 10.2-4.5 10.2-10.2 10.2-10.2-4.6-10.2-10.2z" style="fill:none;stroke:#f16161;stroke-width:1.5"/><path d="M52.3 168.4h-6.7" style="fill:none;stroke:#f16161;stroke-width:1.5;stroke-linecap:round;stroke-miterlimit:10"/><path class="st7" d="M379.8 107.4v-11c0-1.1-.9-2-2-2h-7.9c-.3 0-.6.1-.8.4l-2.3 2.9"/><path class="st18" d="M367.8 97.4h8c.6 0 1 .4 1 1v10c0 .6-.4 1-1 1h-8c-.6 0-1-.4-1-1v-10c0-.6.4-1 1-1z"/><path class="st7" d="M369.8 101.7c.2-.4.5-.8.9-1.1.4-.2.9-.3 1.4-.2s.9.3 1.2.7c.3.4.5.8.5 1.3 0 1.3-2.1 2-2.1 2"/><circle class="st4" cx="371.8" cy="106.4" r="1"/><circle class="st68" cx="374.6" cy="126.8" r="8"/><path class="st68" d="M374.6 131.4v-5.7"/><circle class="st4" cx="374.6" cy="122.2" r="1.1"/><path d="M75.6 167.5c-1.4-1.4-2.8-3-2.2-3.6.9-.9 1.7-1.5.1-3.5s-2.7-.5-3.6.4c-1 1-.1 4.8 3.7 8.5 3.7 3.7 7.6 4.7 8.5 3.7.9-.9 2.4-2 .4-3.6s-2.6-.8-3.5.1c-.4.7-2-.5-3.4-2z" style="fill:#d8f5ff;stroke:#22c5ed;stroke-width:1.5;stroke-linecap:round;stroke-linejoin:round"/><path style="fill:#ffe4e3" d="M94.5 159.4h12v13h-12z"/><path class="st71" d="M98.4 159.3h4.7M105.2 159.3h1c.4 0 .7.4.7.9v11.7c0 .5-.3.9-.7.9H95c-.4 0-.7-.4-.7-.9v-11.8c0-.5.3-.9.7-.9h1.5"/><path d="m97.9 166.3 1.9 1.9 3.9-3.9" style="fill:none;stroke:#ff4121;stroke-width:1.5;stroke-linecap:round;stroke-linejoin:round;stroke-miterlimit:10"/><path style="fill:#e9e3ff" d="M117.6 161.7h15.9v7.9h-15.9z"/><path class="st74" d="M118.7 170.2c-.9 0-1.6-.7-1.6-1.6V163c0-.9.7-1.6 1.6-1.6M123.5 161.4h8.9c.9 0 1.6.7 1.6 1.6v5.6c0 .9-.7 1.6-1.6 1.6h-8.9M121.1 159v13.5"/><path class="st75" d="M157 162.6v-.9c0-.5-.4-.9-.9-.9h-11.2c-.5.1-.9.4-.9.9v.9l6.1 4.2c.2.1.4.1.6 0l6.3-4.2z"/><path class="st75" d="M157 162.6v-.9c0-.5-.4-.9-.9-.9h-11.2c-.5.1-.9.4-.9.9v.9l6.1 4.2c.2.1.4.1.6 0l6.3-4.2z"/><path class="st75" d="M157 162.9v7.1c0 .5-.4.9-.9.9h-11.2c-.5 0-.9-.4-.9-.9v-7.1"/><path class="st3" d="m173.4 159.4-6 6 6 6m-5.5-6h14"/><path d="m199.5 164-3.5 3.5-3.5-3.5" style="fill:none;stroke:#2d84f2;stroke-width:1.5;stroke-linecap:round;stroke-linejoin:round"/><g id="green_tick_success_circle_1_"><circle cx="222.5" cy="16.5" r="10.5" style="fill:#5bb57c"/><path class="st16" d="m218.3 16.3 3.2 3.2 6.1-6.2"/></g><path id="Rectangle" d="M358.5 41.9v8.2c0 .6-.3 1.2-.7 1.6s-1 .7-1.6.7h-5c-.6 0-1.2-.3-1.6-.7s-.7-1-.7-1.6v-8.2h9.6z" style="fill:none;stroke:#434955;stroke-width:1.5"/><path class="st79" d="M347.5 41.8h12.6M351.3 38.8h4.9"/><path id="Rectangle_1_" d="M379.5 41.9v8.2c0 .6-.3 1.2-.7 1.6s-1 .7-1.6.7h-5c-.6 0-1.2-.3-1.6-.7s-.7-1-.7-1.6v-8.2h9.6z" style="fill:none;stroke:#f26464;stroke-width:1.5"/><path class="st81" d="M368.5 41.8h12.6M372.3 38.8h4.9"/><g id="Group_5" transform="translate(.311 .006)"><path id="Stroke_1" class="st82" d="m235.4 163.8 6.6 6.6c.1.1.3.1.4 0l.1-.1 1-4.6c0-.1 0-.1.1-.2l1.6-1.5s.1-.1.2-.1l1.9-.4c.2 0 .3-.2.2-.4 0-.1 0-.1-.1-.2l-4.3-4.3c-.1-.1-.3-.1-.4 0l-.1.1-.5 2c0 .1 0 .1-.1.1l-1.4 1.3-.1.1-5 1.1c-.2 0-.3.2-.1.5-.1-.1-.1 0 0 0z"/><path id="Stroke_3" class="st82" d="m234.6 171.3 4-4"/></g><g id="Group_5_00000034057277979500816050000010104710366652793994_" transform="translate(.311 .006)"><path id="Stroke_1_00000034057452467802863070000016592012967474499728_" class="st83" d="m210.4 163.8 6.6 6.6c.1.1.3.1.4 0l.1-.1 1-4.6c0-.1 0-.1.1-.2l1.6-1.5s.1-.1.2-.1l1.9-.4c.2 0 .3-.2.2-.4 0-.1 0-.1-.1-.2l-4.3-4.3c-.1-.1-.3-.1-.4 0l-.1.1-.5 2c0 .1 0 .1-.1.1l-1.4 1.3-.1.1-5 1.1c-.2 0-.3.2-.1.5-.1-.1-.1 0 0 0z"/><path id="Stroke_3_00000007415190592832581690000012680118397802059944_" class="st83" d="m209.6 171.3 4-4"/></g><g id="Group_2493" transform="translate(-130 -152)"><g id="Rectangle_3275"><path class="st5" d="M237 140.3h12v1.5h-12z" transform="translate(130 152)"/><path class="st84" d="M237.5 140.8h11v.5h-11z" transform="translate(130 152)"/></g><g id="Rectangle_3276"><path class="st5" d="M237 140.3h12v1.5h-12z" transform="translate(130 156)"/><path class="st84" d="M237.5 140.8h11v.5h-11z" transform="translate(130 156)"/></g><g id="Rectangle_3277"><path class="st5" d="M237 140.3h12v1.5h-12z" transform="translate(130 160)"/><path class="st84" d="M237.5 140.8h11v.5h-11z" transform="translate(130 160)"/></g></g><path class="st68" d="M264.8 142.5h-4v4h4v-4zM271.8 142.5h-4v4h4v-4zM271.8 149.5h-11v4h11v-4zM284.3 141.8h3c.3 0 .5.2.5.5v2c0 .3-.2.5-.5.5h-3c-.3 0-.5-.2-.5-.5v-2c0-.3.3-.5.5-.5zM291.3 141.8h2c.3 0 .5.2.5.5v2c0 .3-.2.5-.5.5h-2c-.3 0-.5-.2-.5-.5v-2c0-.3.3-.5.5-.5z"/><path class="st4" d="m288.2 152.1.8 1.2c0 .1.1.1.2.1l.9-.4c.2.1.4.3.6.4l.1.9c0 .1.1.1.2.1h1.5c.1 0 .2-.1.2-.1l.1-1c.2-.1.4-.2.6-.4l.9.4c.1 0 .2 0 .2-.1l.8-1.2v-.3l-.8-.6v-.8l.8-.6c.1-.1.1-.1 0-.3l-.8-1.2c0-.1-.1-.1-.2-.1l-.9.4c-.2-.1-.4-.3-.6-.4l-.1-.9c0-.1-.1-.1-.2-.1H291c-.1 0-.2.1-.2.1l-.1.9c-.2.1-.4.2-.6.4l-.9-.4c-.1 0-.2 0-.2.1l-.8 1.2v.3l.8.6v.8l-.8.6v.4z"/><path class="st34" d="M293.1 150.8c0 .7-.5 1.2-1.2 1.2s-1.2-.5-1.2-1.2c0-.6.5-1.2 1.2-1.2.7.1 1.2.5 1.2 1.2z"/><path class="st68" d="M284.8 147.8v5"/></svg>