<svg xmlns="http://www.w3.org/2000/svg" width="24" height="15.2" style="enable-background:new 0 0 24 15.2" xml:space="preserve"><g style="opacity:.9"><path d="M16.5 15.2c-2 0-3.9-.8-5.3-2.2L7.1 8.8c-.5-.5-.8-1.1-.8-1.8s.3-1.3.8-1.8c.4-.4 1.1-.7 1.8-.7s1.3.3 1.8.8l3.9 3.9c.4.4 1.2.4 1.6 0 .2-.2.3-.5.3-.8 0-.3-.1-.6-.3-.8L12 3.3c-1.3-1.2-2.8-1.8-4.4-1.8-1.7 0-3.2.6-4.4 1.8C2 4.5 1.4 6.1 1.4 7.7c.1 1.6.7 3.2 1.8 4.3s2.7 1.8 4.3 1.8c.6 0 1.2-.1 1.8-.3.4-.1.8.1.9.5.1.4-.1.8-.5.9-.6.3-1.3.3-2.1.3-2 0-3.9-.8-5.3-2.1C.8 11.7.1 9.8 0 7.8c0-1.1.2-2.1.6-3S1.5 3 2.1 2.3 3.6 1 4.5.7c.9-.4 2-.6 3-.6 2 0 3.9.8 5.3 2.2L17 6.4c.5.5.8 1.1.8 1.8s-.3 1.3-.8 1.8c-1 1-2.7 1-3.6 0L9.5 6.3c-.4-.4-1.2-.4-1.6 0-.2.1-.3.5-.3.8 0 .3.1.6.3.8l4.2 4.2c1.1 1.1 2.7 1.8 4.4 1.8s3.2-.6 4.4-1.8c1.1-1.1 1.8-2.7 1.8-4.4s-.7-3.3-1.9-4.4c-1.1-1.1-2.7-1.8-4.4-1.8-.5 0-1.1.1-1.6.2-.1 0-.1.1-.2.1-.4.1-.8-.1-.9-.5-.1-.4.1-.8.5-.9.1 0 .2-.1.3-.1.7-.2 1.3-.3 1.9-.3 1 0 2 .2 3 .6.9.4 1.7.9 2.4 1.6.7.7 1.3 1.5 1.6 2.4.4.9.6 2 .6 3 0 2-.8 3.9-2.2 5.4-1.3 1.5-3.2 2.2-5.3 2.2z" style="fill:#fff"/></g></svg>